<svg xmlns="http://www.w3.org/2000/svg" xmlns:xlink="http://www.w3.org/1999/xlink" width="1920" zoomAndPan="magnify" viewBox="0 0 1440 809.999993" height="1080" preserveAspectRatio="xMidYMid meet" version="1.0"><defs><clipPath id="e42cedee59"><path d="M 672 463 L 815 463 L 815 567 L 672 567 Z M 672 463 " clip-rule="nonzero"/></clipPath></defs><path fill="#ffffff" d="M 783.140625 435.574219 C 787.128906 406.082031 825.4375 384.886719 801.257812 358.617188 C 801.257812 358.617188 813.339844 362.894531 812.835938 378.242188 C 812.835938 378.242188 829.574219 358.746094 817.25 337.632812 C 823.28125 319.042969 824.742188 296.46875 809.316406 281.074219 C 809.316406 281.074219 820.003906 296.632812 815.105469 312.109375 C 815.105469 312.109375 814.34375 275.515625 767.796875 269.503906 C 767.796875 269.503906 790.828125 277.6875 798.125 299.421875 C 798.125 299.421875 798.644531 291.65625 792.9375 282.875 C 792.9375 282.875 810.226562 296.390625 803.429688 322.660156 C 803.429688 322.660156 799.40625 299.875 780.527344 289.339844 C 761.664062 278.757812 739.398438 274.609375 730.332031 259.296875 C 730.332031 259.296875 732.339844 272.242188 749.210938 280.539062 C 749.210938 280.539062 713.480469 274.609375 705.679688 243.203125 C 705.679688 243.203125 704.28125 267.722656 732.84375 279.550781 C 761.40625 291.332031 768.070312 301.039062 769.335938 310.210938 C 769.335938 310.210938 771.980469 301.914062 763.304688 291.445312 C 763.304688 291.445312 779.28125 304.023438 779.652344 325.265625 C 779.652344 325.265625 784.175781 309.582031 775.257812 297.765625 C 775.257812 297.765625 788.589844 307.925781 785.441406 326.0625 C 785.441406 326.0625 800.785156 328.785156 806.949219 335.347656 C 806.949219 335.347656 782.425781 328.539062 764.179688 333.855469 C 764.179688 333.855469 773.050781 329.578125 782.667969 330.242188 C 782.667969 330.242188 759.023438 324.472656 735.113281 347.582031 C 735.113281 347.582031 746.324219 328.136719 766.0625 325.722656 C 766.0625 325.722656 772.855469 299.210938 738.390625 286.648438 C 738.390625 286.648438 749.582031 293.148438 754.871094 303.113281 C 754.871094 303.113281 743.921875 289.257812 723.535156 281.738281 C 703.164062 274.203125 701.136719 266.394531 700.015625 262.992188 C 700.015625 262.992188 698.25 281.074219 724.800781 291.917969 C 724.800781 291.917969 694.46875 288.515625 694.730469 256.847656 C 694.730469 256.847656 681.136719 300.828125 735.488281 308.882812 C 735.488281 308.882812 704.28125 310.375 694.46875 293.277344 C 694.46875 293.277344 688.0625 315.058594 714.726562 325.347656 C 714.726562 325.347656 679.761719 323.0625 677.992188 284.851562 C 677.992188 284.851562 674.84375 294.738281 676.855469 302.773438 C 676.855469 302.773438 663.394531 280.332031 689.3125 259.71875 C 689.3125 259.71875 653.339844 278.351562 668.421875 311.785156 C 668.421875 311.785156 654.34375 296.179688 664.902344 276.554688 C 664.902344 276.554688 657.863281 285.355469 657.863281 294.445312 C 657.863281 294.445312 653.957031 269.292969 684.65625 253.460938 C 684.65625 253.460938 634.832031 259.214844 636.601562 309.257812 C 636.601562 309.257812 638.484375 294.316406 646.152344 286.390625 C 646.152344 286.390625 629.171875 321.199219 673.96875 345.589844 C 673.96875 345.589844 621.875 339.542969 635.207031 286.019531 C 635.207031 286.019531 610.539062 337.082031 668.875 346.886719 L 668.875 346.917969 C 668.875 346.917969 660.847656 355.101562 661.09375 366.25 C 661.09375 366.25 664.285156 353.851562 675.007812 347.742188 C 677.539062 348.003906 680.199219 348.214844 683.019531 348.328125 C 683.019531 348.328125 662.761719 338.296875 655.851562 319.207031 C 655.851562 319.207031 672.574219 347.339844 705.546875 341.328125 C 705.546875 341.328125 684.414062 338.667969 671.324219 323.597656 C 671.324219 323.597656 704.152344 346.964844 739.007812 330.242188 C 739.007812 330.242188 729.957031 336.917969 725.804688 348.992188 C 725.804688 348.992188 733.21875 338.296875 740.644531 334.632812 C 740.644531 334.632812 731.207031 343.433594 728.9375 353.398438 C 728.9375 353.398438 755.242188 346.835938 776.507812 358.78125 C 776.507812 358.78125 757.496094 351.988281 741.523438 355.75 C 741.523438 355.75 747.28125 363.058594 751.042969 373.558594 L 707.835938 373.21875 C 707.835938 373.21875 683.816406 363.007812 669.460938 374.304688 C 663.152344 378.664062 656.226562 366.414062 649.089844 375.453125 C 646.542969 378.695312 643.738281 399.195312 662.664062 399.8125 C 662.664062 399.8125 660.652344 405.871094 658.269531 406.746094 C 658.269531 406.746094 667.953125 405.257812 667.207031 383.882812 C 667.207031 383.882812 670.238281 381.0625 670.855469 385.179688 C 676.46875 423.632812 711.726562 407.070312 709.277344 382.472656 L 753.410156 382.066406 C 755.128906 391.011719 754.609375 401.222656 748.578125 410.929688 C 748.578125 410.929688 756.378906 402.015625 756.621094 393.71875 C 756.621094 393.71875 764.667969 437.859375 724.671875 422.011719 C 724.671875 422.011719 729.324219 427.277344 737.5 429.808594 C 737.5 429.808594 724.539062 429.808594 719.625 418.238281 C 719.625 418.238281 720.386719 425.414062 723.90625 429.9375 C 727.425781 434.457031 726.292969 443.871094 716.105469 443.371094 C 716.105469 443.371094 730.445312 448.265625 731.464844 460.46875 C 731.464844 460.46875 729 453.207031 721.265625 450.175781 C 721.265625 450.175781 733.980469 459.089844 728.433594 472.539062 C 728.433594 472.539062 730.199219 456.1875 713.460938 449.804688 C 713.460938 449.804688 718.621094 454.082031 721.765625 459.21875 C 721.765625 459.21875 713.722656 447.519531 696.109375 447.277344 C 696.109375 447.277344 710.707031 452.039062 700.132812 471.664062 C 700.132812 471.664062 707.933594 462.167969 706.488281 454.082031 C 706.488281 454.082031 711.386719 471.375 692.394531 478.519531 C 692.394531 478.519531 702.757812 467.015625 699.433594 457.144531 C 699.433594 457.144531 699.5625 461.535156 698.429688 464.695312 C 698.429688 464.695312 700.261719 454.113281 693.011719 449.851562 C 693.011719 449.851562 702.011719 466.527344 676.289062 464.859375 C 676.289062 464.859375 687.171875 464.082031 690.5625 458.148438 C 690.5625 458.148438 681.382812 459.21875 676.160156 454.488281 C 670.9375 449.804688 660.183594 451.667969 660.929688 460.839844 C 660.929688 460.839844 658.480469 453.871094 664.207031 450.679688 C 664.207031 450.679688 655.335938 444.328125 659.746094 436.984375 C 664.140625 429.644531 672.882812 432.253906 677.164062 436.402344 C 681.445312 440.550781 694.40625 447.972656 706.910156 439.5625 C 706.910156 439.5625 701.378906 441.296875 695.28125 439.804688 C 695.28125 439.804688 720 440.890625 715.71875 418.851562 C 715.71875 418.851562 713.527344 435.738281 692.265625 431.636719 C 692.265625 431.636719 702.207031 431.589844 706.976562 426.613281 C 706.976562 426.613281 694.585938 430.972656 684.398438 419.015625 C 684.398438 419.015625 685.664062 423.128906 688.113281 426.078125 C 688.113281 426.078125 681.253906 423.632812 680.246094 417.652344 C 680.246094 417.652344 679.988281 407.445312 669.929688 409.355469 C 669.929688 409.355469 676.273438 410.929688 674.765625 415.449219 C 674.765625 415.449219 667.289062 410.3125 662.128906 414.832031 C 662.128906 414.832031 663.769531 411.1875 665.648438 410.71875 C 665.648438 410.71875 662.679688 411.429688 659.84375 414.296875 C 656.859375 412.222656 657.132812 408.902344 657.132812 408.902344 C 654.394531 412.335938 657.914062 416.695312 657.914062 416.695312 C 656.972656 418.15625 656.144531 419.890625 655.578125 422.042969 C 655.578125 422.042969 657.71875 419.355469 658.871094 418.609375 C 658.871094 418.609375 659.371094 429.644531 646.65625 427.359375 C 646.65625 427.359375 649.460938 430.683594 654.410156 430.421875 C 654.410156 430.421875 647.613281 433.632812 643.703125 427.941406 C 643.703125 427.941406 644.808594 437.519531 656.128906 438.070312 C 656.128906 438.070312 658.96875 466.902344 641.46875 475.3125 C 641.46875 475.3125 651.035156 475.230469 655.382812 466.316406 C 655.382812 466.316406 653.402344 481.632812 641.351562 484.355469 C 641.351562 484.355469 646.949219 486.523438 653.046875 482.78125 C 653.046875 482.78125 639.648438 508.710938 674.617188 525.9375 C 674.617188 525.9375 657.378906 506.394531 667.953125 485.683594 C 667.953125 485.683594 657.265625 517.640625 694 526.925781 C 694 526.925781 704.574219 512.859375 694.375 494.984375 C 694.375 494.984375 708.207031 509.34375 698.898438 525.5625 C 698.898438 525.5625 732.503906 516.714844 738.035156 472.492188 C 738.035156 472.492188 738.035156 491.824219 732.746094 501.902344 C 732.746094 501.902344 767.195312 482.199219 760.5625 442.59375 C 760.5625 442.59375 765.71875 459.671875 762.574219 472.003906 C 762.574219 472.003906 775.777344 457.273438 768.476562 428.609375 C 761.179688 399.972656 764.957031 381.222656 771.121094 375.84375 C 771.121094 375.84375 765.21875 378.824219 762.816406 385.746094 C 766.351562 358.617188 803.898438 361.808594 794.589844 388.9375 C 787.875 408.53125 781.128906 411.59375 783.140625 435.574219 " fill-opacity="1" fill-rule="evenodd"/><g clip-path="url(#e42cedee59)"><path fill="#ffffff" d="M 786.902344 473.980469 C 786.902344 473.980469 788.945312 487.644531 729.082031 513.3125 C 729.082031 513.3125 721.6875 521.980469 719.640625 532.160156 L 710.511719 532.160156 L 718.265625 528.253906 C 718.265625 528.253906 719.464844 520.621094 724.476562 514.269531 C 725.269531 513.441406 726.046875 512.617188 726.8125 511.707031 C 728.207031 510.378906 729.8125 509.164062 731.660156 508.207031 C 742.835938 502.40625 788.117188 484.109375 783.871094 470.464844 C 783.871094 470.464844 789.222656 455.152344 799.570312 469.71875 L 805.667969 498.339844 L 814.441406 500.300781 C 814.441406 500.300781 803.542969 538.414062 773.425781 566.09375 C 773.425781 566.09375 802.066406 528.625 805.765625 503.6875 C 805.765625 503.6875 793.195312 522.90625 769.546875 537.507812 C 769.546875 537.507812 791.71875 518.09375 798.921875 504.058594 C 798.921875 504.058594 787.46875 517.167969 777.121094 521.414062 C 777.121094 521.414062 791.898438 508.5 798.546875 498.875 C 798.546875 498.875 785.621094 510.542969 777.867188 513.863281 C 777.867188 513.863281 788.394531 503.523438 791.347656 499.636719 C 791.347656 499.636719 782.34375 507.835938 774.398438 511.902344 C 774.398438 511.902344 786.691406 501.042969 792.871094 492.699219 C 792.871094 492.699219 779.296875 502.859375 769.046875 508.207031 C 769.046875 508.207031 781.421875 497.59375 786.96875 491.871094 C 786.96875 491.871094 773.199219 501.367188 763.953125 504.984375 C 763.953125 504.984375 787.695312 489.214844 795.464844 475.894531 C 795.464844 475.894531 796.324219 470.09375 791.214844 468.261719 C 786.109375 466.398438 786.902344 473.980469 786.902344 473.980469 Z M 707.265625 539.320312 L 723.066406 539.792969 C 723.066406 539.792969 745.707031 528.089844 758.632812 528.253906 C 758.632812 528.253906 744.601562 526.421875 732.40625 531.949219 C 732.40625 531.949219 747.003906 520.25 756.703125 517.929688 C 756.703125 517.929688 736.933594 521.527344 725.464844 531.867188 C 725.464844 531.867188 732.488281 511.984375 762.054688 511.53125 C 762.054688 511.53125 772.953125 545.964844 756.703125 567.210938 C 756.703125 567.210938 737.953125 559.320312 720.484375 544.3125 L 709.390625 545.058594 C 709.390625 545.058594 696.464844 562.058594 677.796875 562.769531 C 677.796875 562.769531 671.632812 543.890625 672.753906 528.625 C 672.835938 528.675781 689.636719 530.78125 698.167969 534.6875 C 698.167969 534.6875 691.84375 533.941406 689.117188 534.265625 C 689.117188 534.265625 703.359375 536.339844 707.265625 539.320312 " fill-opacity="1" fill-rule="evenodd"/></g></svg>