<svg xmlns="http://www.w3.org/2000/svg" xmlns:xlink="http://www.w3.org/1999/xlink" width="1920" zoomAndPan="magnify" viewBox="0 0 1440 809.999993" height="1080" preserveAspectRatio="xMidYMid meet" version="1.0"><path fill="#f18f26" d="M 558.449219 405.449219 L 881.550781 405.449219 L 881.550781 486.222656 L 558.449219 486.222656 Z M 558.449219 405.449219 " fill-opacity="1" fill-rule="nonzero"/><path fill="#f18f26" d="M 881.550781 477.25 C 881.550781 478.570312 881.488281 479.890625 881.355469 481.210938 C 881.226562 482.53125 881.03125 483.851562 880.773438 485.167969 C 880.515625 486.480469 880.191406 487.792969 879.800781 489.101562 C 879.414062 490.410156 878.960938 491.710938 878.445312 493.007812 C 877.929688 494.304688 877.351562 495.59375 876.710938 496.875 C 876.066406 498.160156 875.363281 499.433594 874.59375 500.695312 C 873.828125 501.960938 873 503.21875 872.109375 504.460938 C 871.21875 505.707031 870.265625 506.941406 869.253906 508.160156 C 868.242188 509.382812 867.171875 510.589844 866.039062 511.785156 C 864.910156 512.980469 863.722656 514.160156 862.476562 515.328125 C 861.230469 516.492188 859.925781 517.640625 858.566406 518.777344 C 857.207031 519.910156 855.792969 521.027344 854.324219 522.125 C 852.855469 523.226562 851.335938 524.304688 849.757812 525.367188 C 848.183594 526.429688 846.558594 527.472656 844.878906 528.492188 C 843.203125 529.515625 841.476562 530.515625 839.703125 531.496094 C 837.925781 532.472656 836.101562 533.429688 834.234375 534.367188 C 832.363281 535.300781 830.449219 536.210938 828.492188 537.101562 C 826.53125 537.988281 824.53125 538.851562 822.488281 539.691406 C 820.441406 540.527344 818.359375 541.339844 816.234375 542.128906 C 814.113281 542.917969 811.953125 543.675781 809.753906 544.410156 C 807.554688 545.144531 805.320312 545.851562 803.054688 546.53125 C 800.785156 547.210938 798.488281 547.863281 796.15625 548.488281 C 793.824219 549.109375 791.460938 549.703125 789.070312 550.269531 C 786.683594 550.835938 784.265625 551.371094 781.824219 551.875 C 779.378906 552.382812 776.914062 552.859375 774.425781 553.304688 C 771.9375 553.75 769.425781 554.164062 766.894531 554.546875 C 764.367188 554.929688 761.820312 555.28125 759.253906 555.605469 C 756.6875 555.925781 754.109375 556.214844 751.515625 556.472656 C 748.925781 556.730469 746.320312 556.957031 743.703125 557.152344 C 741.089844 557.34375 738.464844 557.507812 735.835938 557.636719 C 733.203125 557.765625 730.566406 557.863281 727.925781 557.925781 C 725.285156 557.992188 722.644531 558.023438 720 558.023438 C 717.355469 558.023438 714.714844 557.992188 712.074219 557.925781 C 709.433594 557.863281 706.796875 557.765625 704.164062 557.636719 C 701.535156 557.507812 698.910156 557.34375 696.296875 557.152344 C 693.679688 556.957031 691.074219 556.730469 688.484375 556.472656 C 685.890625 556.214844 683.3125 555.925781 680.746094 555.605469 C 678.179688 555.28125 675.632812 554.929688 673.105469 554.546875 C 670.574219 554.164062 668.0625 553.75 665.574219 553.304688 C 663.085938 552.859375 660.621094 552.382812 658.175781 551.875 C 655.734375 551.371094 653.316406 550.835938 650.929688 550.269531 C 648.539062 549.703125 646.175781 549.109375 643.84375 548.488281 C 641.511719 547.863281 639.214844 547.210938 636.945312 546.53125 C 634.679688 545.851562 632.445312 545.144531 630.246094 544.410156 C 628.046875 543.675781 625.886719 542.917969 623.765625 542.128906 C 621.640625 541.339844 619.558594 540.527344 617.511719 539.691406 C 615.46875 538.851562 613.46875 537.988281 611.507812 537.101562 C 609.550781 536.210938 607.636719 535.300781 605.765625 534.367188 C 603.898438 533.429688 602.074219 532.472656 600.296875 531.496094 C 598.523438 530.515625 596.796875 529.515625 595.121094 528.492188 C 593.441406 527.472656 591.816406 526.429688 590.242188 525.367188 C 588.664062 524.304688 587.144531 523.226562 585.675781 522.125 C 584.207031 521.027344 582.792969 519.910156 581.433594 518.777344 C 580.074219 517.640625 578.769531 516.492188 577.523438 515.328125 C 576.277344 514.160156 575.089844 512.980469 573.960938 511.785156 C 572.828125 510.589844 571.757812 509.382812 570.746094 508.160156 C 569.734375 506.941406 568.78125 505.707031 567.890625 504.460938 C 567 503.21875 566.171875 501.960938 565.40625 500.695312 C 564.636719 499.433594 563.933594 498.160156 563.289062 496.875 C 562.648438 495.59375 562.070312 494.304688 561.554688 493.007812 C 561.039062 491.710938 560.585938 490.410156 560.199219 489.101562 C 559.808594 487.792969 559.484375 486.480469 559.226562 485.167969 C 558.96875 483.851562 558.773438 482.53125 558.644531 481.210938 C 558.511719 479.890625 558.449219 478.570312 558.449219 477.25 C 558.449219 475.925781 558.511719 474.605469 558.644531 473.285156 C 558.773438 471.964844 558.96875 470.648438 559.226562 469.332031 C 559.484375 468.015625 559.808594 466.703125 560.199219 465.398438 C 560.585938 464.089844 561.039062 462.789062 561.554688 461.492188 C 562.070312 460.195312 562.648438 458.90625 563.289062 457.621094 C 563.933594 456.339844 564.636719 455.066406 565.40625 453.800781 C 566.171875 452.535156 567 451.28125 567.890625 450.035156 C 568.78125 448.792969 569.734375 447.558594 570.746094 446.335938 C 571.757812 445.117188 572.828125 443.910156 573.960938 442.714844 C 575.089844 441.519531 576.277344 440.335938 577.523438 439.171875 C 578.769531 438.007812 580.074219 436.855469 581.433594 435.722656 C 582.792969 434.589844 584.207031 433.472656 585.675781 432.371094 C 587.144531 431.273438 588.664062 430.191406 590.242188 429.132812 C 591.816406 428.070312 593.441406 427.027344 595.121094 426.003906 C 596.796875 424.984375 598.523438 423.984375 600.296875 423.003906 C 602.074219 422.023438 603.898438 421.066406 605.765625 420.132812 C 607.636719 419.199219 609.550781 418.285156 611.507812 417.398438 C 613.46875 416.511719 615.46875 415.648438 617.511719 414.808594 C 619.558594 413.96875 621.640625 413.15625 623.765625 412.371094 C 625.886719 411.582031 628.046875 410.820312 630.246094 410.085938 C 632.445312 409.351562 634.679688 408.644531 636.945312 407.964844 C 639.214844 407.285156 641.511719 406.632812 643.84375 406.011719 C 646.175781 405.386719 648.539062 404.792969 650.929688 404.230469 C 653.316406 403.664062 655.734375 403.128906 658.175781 402.621094 C 660.621094 402.117188 663.085938 401.640625 665.574219 401.195312 C 668.0625 400.75 670.574219 400.335938 673.105469 399.953125 C 675.632812 399.566406 678.179688 399.214844 680.746094 398.894531 C 683.3125 398.574219 685.890625 398.285156 688.484375 398.027344 C 691.074219 397.769531 693.679688 397.542969 696.296875 397.347656 C 698.910156 397.152344 701.535156 396.992188 704.164062 396.863281 C 706.796875 396.734375 709.433594 396.636719 712.074219 396.570312 C 714.714844 396.507812 717.355469 396.472656 720 396.472656 C 722.644531 396.472656 725.285156 396.507812 727.925781 396.570312 C 730.566406 396.636719 733.203125 396.734375 735.835938 396.863281 C 738.464844 396.992188 741.089844 397.152344 743.703125 397.347656 C 746.320312 397.542969 748.925781 397.769531 751.515625 398.027344 C 754.109375 398.285156 756.6875 398.574219 759.253906 398.894531 C 761.820312 399.214844 764.367188 399.566406 766.894531 399.953125 C 769.425781 400.335938 771.9375 400.75 774.425781 401.195312 C 776.914062 401.640625 779.378906 402.117188 781.824219 402.621094 C 784.265625 403.128906 786.683594 403.664062 789.070312 404.230469 C 791.460938 404.792969 793.824219 405.386719 796.15625 406.011719 C 798.488281 406.632812 800.785156 407.285156 803.054688 407.964844 C 805.320312 408.644531 807.554688 409.351562 809.753906 410.085938 C 811.953125 410.820312 814.113281 411.582031 816.234375 412.371094 C 818.359375 413.15625 820.441406 413.96875 822.488281 414.808594 C 824.53125 415.648438 826.53125 416.511719 828.492188 417.398438 C 830.449219 418.285156 832.363281 419.199219 834.234375 420.132812 C 836.101562 421.066406 837.925781 422.023438 839.703125 423.003906 C 841.476562 423.984375 843.203125 424.984375 844.878906 426.003906 C 846.558594 427.027344 848.183594 428.070312 849.757812 429.132812 C 851.335938 430.191406 852.855469 431.273438 854.324219 432.371094 C 855.792969 433.472656 857.207031 434.589844 858.566406 435.722656 C 859.925781 436.855469 861.230469 438.007812 862.476562 439.171875 C 863.722656 440.335938 864.910156 441.519531 866.039062 442.714844 C 867.171875 443.910156 868.242188 445.117188 869.253906 446.335938 C 870.265625 447.558594 871.21875 448.792969 872.109375 450.035156 C 873 451.28125 873.828125 452.535156 874.59375 453.800781 C 875.363281 455.066406 876.066406 456.339844 876.710938 457.621094 C 877.351562 458.90625 877.929688 460.195312 878.445312 461.492188 C 878.960938 462.789062 879.414062 464.089844 879.800781 465.398438 C 880.191406 466.703125 880.515625 468.015625 880.773438 469.332031 C 881.03125 470.648438 881.226562 471.964844 881.355469 473.285156 C 881.488281 474.605469 881.550781 475.925781 881.550781 477.25 Z M 881.550781 477.25 " fill-opacity="1" fill-rule="nonzero"/><path fill="#f18f26" d="M 881.550781 486.222656 C 881.550781 487.546875 881.488281 488.867188 881.355469 490.1875 C 881.226562 491.507812 881.03125 492.828125 880.773438 494.140625 C 880.515625 495.457031 880.191406 496.769531 879.800781 498.078125 C 879.414062 499.382812 878.960938 500.6875 878.445312 501.984375 C 877.929688 503.28125 877.351562 504.570312 876.710938 505.851562 C 876.066406 507.132812 875.363281 508.40625 874.59375 509.671875 C 873.828125 510.9375 873 512.191406 872.109375 513.4375 C 871.21875 514.679688 870.265625 515.914062 869.253906 517.136719 C 868.242188 518.355469 867.171875 519.566406 866.039062 520.761719 C 864.910156 521.957031 863.722656 523.136719 862.476562 524.300781 C 861.230469 525.46875 859.925781 526.617188 858.566406 527.75 C 857.207031 528.886719 855.792969 530 854.324219 531.101562 C 852.855469 532.199219 851.335938 533.28125 849.757812 534.34375 C 848.183594 535.402344 846.558594 536.445312 844.878906 537.46875 C 843.203125 538.488281 841.476562 539.492188 839.703125 540.46875 C 837.925781 541.449219 836.101562 542.40625 834.234375 543.339844 C 832.363281 544.277344 830.449219 545.1875 828.492188 546.074219 C 826.53125 546.964844 824.53125 547.824219 822.488281 548.664062 C 820.441406 549.503906 818.359375 550.316406 816.234375 551.105469 C 814.113281 551.890625 811.953125 552.652344 809.753906 553.386719 C 807.554688 554.121094 805.320312 554.828125 803.054688 555.507812 C 800.785156 556.1875 798.488281 556.839844 796.15625 557.460938 C 793.824219 558.085938 791.460938 558.679688 789.070312 559.246094 C 786.683594 559.808594 784.265625 560.34375 781.824219 560.851562 C 779.378906 561.355469 776.914062 561.832031 774.425781 562.277344 C 771.9375 562.722656 769.425781 563.136719 766.894531 563.523438 C 764.367188 563.90625 761.820312 564.257812 759.253906 564.578125 C 756.6875 564.902344 754.109375 565.191406 751.515625 565.449219 C 748.925781 565.707031 746.320312 565.933594 743.703125 566.125 C 741.089844 566.320312 738.464844 566.480469 735.835938 566.609375 C 733.203125 566.742188 730.566406 566.835938 727.925781 566.902344 C 725.285156 566.96875 722.644531 567 720 567 C 717.355469 567 714.714844 566.96875 712.074219 566.902344 C 709.433594 566.835938 706.796875 566.742188 704.164062 566.609375 C 701.535156 566.480469 698.910156 566.320312 696.296875 566.125 C 693.679688 565.933594 691.074219 565.707031 688.484375 565.449219 C 685.890625 565.191406 683.3125 564.902344 680.746094 564.578125 C 678.179688 564.257812 675.632812 563.90625 673.105469 563.523438 C 670.574219 563.136719 668.0625 562.722656 665.574219 562.277344 C 663.085938 561.832031 660.621094 561.355469 658.175781 560.851562 C 655.734375 560.34375 653.316406 559.808594 650.929688 559.246094 C 648.539062 558.679688 646.175781 558.085938 643.84375 557.460938 C 641.511719 556.839844 639.214844 556.1875 636.945312 555.507812 C 634.679688 554.828125 632.445312 554.121094 630.246094 553.386719 C 628.046875 552.652344 625.886719 551.890625 623.765625 551.105469 C 621.640625 550.316406 619.558594 549.503906 617.511719 548.664062 C 615.46875 547.824219 613.46875 546.964844 611.507812 546.074219 C 609.550781 545.1875 607.636719 544.277344 605.765625 543.339844 C 603.898438 542.40625 602.074219 541.449219 600.296875 540.46875 C 598.523438 539.492188 596.796875 538.488281 595.121094 537.46875 C 593.441406 536.445312 591.816406 535.402344 590.242188 534.34375 C 588.664062 533.28125 587.144531 532.199219 585.675781 531.101562 C 584.207031 530 582.792969 528.886719 581.433594 527.75 C 580.074219 526.617188 578.769531 525.46875 577.523438 524.300781 C 576.277344 523.136719 575.089844 521.957031 573.960938 520.761719 C 572.828125 519.566406 571.757812 518.355469 570.746094 517.136719 C 569.734375 515.914062 568.78125 514.679688 567.890625 513.4375 C 567 512.191406 566.171875 510.9375 565.40625 509.671875 C 564.636719 508.40625 563.933594 507.132812 563.289062 505.851562 C 562.648438 504.570312 562.070312 503.28125 561.554688 501.984375 C 561.039062 500.6875 560.585938 499.382812 560.199219 498.078125 C 559.808594 496.769531 559.484375 495.457031 559.226562 494.140625 C 558.96875 492.828125 558.773438 491.507812 558.644531 490.1875 C 558.511719 488.867188 558.449219 487.546875 558.449219 486.222656 C 558.449219 484.902344 558.511719 483.582031 558.644531 482.261719 C 558.773438 480.941406 558.96875 479.621094 559.226562 478.308594 C 559.484375 476.992188 559.808594 475.679688 560.199219 474.371094 C 560.585938 473.066406 561.039062 471.761719 561.554688 470.464844 C 562.070312 469.167969 562.648438 467.878906 563.289062 466.597656 C 563.933594 465.316406 564.636719 464.042969 565.40625 462.777344 C 566.171875 461.511719 567 460.257812 567.890625 459.011719 C 568.78125 457.765625 569.734375 456.535156 570.746094 455.3125 C 571.757812 454.089844 572.828125 452.882812 573.960938 451.6875 C 575.089844 450.492188 576.277344 449.3125 577.523438 448.148438 C 578.769531 446.980469 580.074219 445.832031 581.433594 444.699219 C 582.792969 443.5625 584.207031 442.445312 585.675781 441.347656 C 587.144531 440.25 588.664062 439.167969 590.242188 438.105469 C 591.816406 437.042969 593.441406 436.003906 595.121094 434.980469 C 596.796875 433.957031 598.523438 432.957031 600.296875 431.980469 C 602.074219 431 603.898438 430.042969 605.765625 429.105469 C 607.636719 428.171875 609.550781 427.261719 611.507812 426.375 C 613.46875 425.484375 615.46875 424.621094 617.511719 423.785156 C 619.558594 422.945312 621.640625 422.132812 623.765625 421.34375 C 625.886719 420.558594 628.046875 419.796875 630.246094 419.0625 C 632.445312 418.328125 634.679688 417.621094 636.945312 416.941406 C 639.214844 416.261719 641.511719 415.609375 643.84375 414.988281 C 646.175781 414.363281 648.539062 413.769531 650.929688 413.203125 C 653.316406 412.640625 655.734375 412.101562 658.175781 411.597656 C 660.621094 411.089844 663.085938 410.617188 665.574219 410.171875 C 668.0625 409.726562 670.574219 409.3125 673.105469 408.925781 C 675.632812 408.542969 678.179688 408.191406 680.746094 407.871094 C 683.3125 407.546875 685.890625 407.257812 688.484375 407 C 691.074219 406.742188 693.679688 406.515625 696.296875 406.324219 C 698.910156 406.128906 701.535156 405.96875 704.164062 405.835938 C 706.796875 405.707031 709.433594 405.609375 712.074219 405.546875 C 714.714844 405.480469 717.355469 405.449219 720 405.449219 C 722.644531 405.449219 725.285156 405.480469 727.925781 405.546875 C 730.566406 405.609375 733.203125 405.707031 735.835938 405.835938 C 738.464844 405.96875 741.089844 406.128906 743.703125 406.324219 C 746.320312 406.515625 748.925781 406.742188 751.515625 407 C 754.109375 407.257812 756.6875 407.546875 759.253906 407.871094 C 761.820312 408.191406 764.367188 408.542969 766.894531 408.925781 C 769.425781 409.3125 771.9375 409.726562 774.425781 410.171875 C 776.914062 410.617188 779.378906 411.089844 781.824219 411.597656 C 784.265625 412.101562 786.683594 412.640625 789.070312 413.203125 C 791.460938 413.769531 793.824219 414.363281 796.15625 414.988281 C 798.488281 415.609375 800.785156 416.261719 803.054688 416.941406 C 805.320312 417.621094 807.554688 418.328125 809.753906 419.0625 C 811.953125 419.796875 814.113281 420.558594 816.234375 421.34375 C 818.359375 422.132812 820.441406 422.945312 822.488281 423.785156 C 824.53125 424.621094 826.53125 425.484375 828.492188 426.375 C 830.449219 427.261719 832.363281 428.171875 834.234375 429.105469 C 836.101562 430.042969 837.925781 431 839.703125 431.980469 C 841.476562 432.957031 843.203125 433.957031 844.878906 434.980469 C 846.558594 436.003906 848.183594 437.042969 849.757812 438.105469 C 851.335938 439.167969 852.855469 440.25 854.324219 441.347656 C 855.792969 442.445312 857.207031 443.5625 858.566406 444.699219 C 859.925781 445.832031 861.230469 446.980469 862.476562 448.148438 C 863.722656 449.3125 864.910156 450.492188 866.039062 451.6875 C 867.171875 452.882812 868.242188 454.089844 869.253906 455.3125 C 870.265625 456.535156 871.21875 457.765625 872.109375 459.011719 C 873 460.257812 873.828125 461.511719 874.59375 462.777344 C 875.363281 464.042969 876.066406 465.316406 876.710938 466.597656 C 877.351562 467.878906 877.929688 469.167969 878.445312 470.464844 C 878.960938 471.761719 879.414062 473.066406 879.800781 474.371094 C 880.191406 475.679688 880.515625 476.992188 880.773438 478.308594 C 881.03125 479.621094 881.226562 480.941406 881.355469 482.261719 C 881.488281 483.582031 881.550781 484.902344 881.550781 486.222656 Z M 881.550781 486.222656 " fill-opacity="1" fill-rule="nonzero"/><path fill="#9d0522" d="M 558.449219 333.648438 L 558.449219 477.25 L 559.5 477.25 C 568.4375 517.628906 636.855469 549.050781 720 549.050781 C 803.144531 549.050781 871.5625 517.628906 880.5 477.25 L 881.550781 477.25 L 881.550781 333.648438 Z M 558.449219 333.648438 " fill-opacity="1" fill-rule="nonzero"/><path fill="#f18f26" d="M 881.550781 342.625 C 881.550781 343.945312 881.488281 345.265625 881.355469 346.585938 C 881.226562 347.90625 881.03125 349.226562 880.773438 350.539062 C 880.515625 351.855469 880.191406 353.167969 879.800781 354.476562 C 879.414062 355.78125 878.960938 357.085938 878.445312 358.382812 C 877.929688 359.679688 877.351562 360.96875 876.710938 362.25 C 876.066406 363.53125 875.363281 364.804688 874.59375 366.070312 C 873.828125 367.335938 873 368.589844 872.109375 369.835938 C 871.21875 371.082031 870.265625 372.3125 869.253906 373.535156 C 868.242188 374.757812 867.171875 375.964844 866.039062 377.160156 C 864.910156 378.355469 863.722656 379.535156 862.476562 380.699219 C 861.230469 381.867188 859.925781 383.015625 858.566406 384.148438 C 857.207031 385.285156 855.792969 386.402344 854.324219 387.5 C 852.855469 388.597656 851.335938 389.679688 849.757812 390.742188 C 848.183594 391.804688 846.558594 392.84375 844.878906 393.867188 C 843.203125 394.890625 841.476562 395.890625 839.703125 396.867188 C 837.925781 397.847656 836.101562 398.804688 834.234375 399.742188 C 832.363281 400.675781 830.449219 401.585938 828.492188 402.472656 C 826.53125 403.363281 824.53125 404.226562 822.488281 405.0625 C 820.441406 405.902344 818.359375 406.714844 816.234375 407.503906 C 814.113281 408.289062 811.953125 409.050781 809.753906 409.785156 C 807.554688 410.519531 805.320312 411.226562 803.054688 411.90625 C 800.785156 412.585938 798.488281 413.238281 796.15625 413.859375 C 793.824219 414.484375 791.460938 415.078125 789.070312 415.644531 C 786.683594 416.207031 784.265625 416.746094 781.824219 417.25 C 779.378906 417.757812 776.914062 418.230469 774.425781 418.675781 C 771.9375 419.121094 769.425781 419.535156 766.894531 419.921875 C 764.367188 420.304688 761.820312 420.65625 759.253906 420.976562 C 756.6875 421.300781 754.109375 421.589844 751.515625 421.847656 C 748.925781 422.105469 746.320312 422.332031 743.703125 422.523438 C 741.089844 422.71875 738.464844 422.878906 735.835938 423.011719 C 733.203125 423.140625 730.566406 423.238281 727.925781 423.300781 C 725.285156 423.367188 722.644531 423.398438 720 423.398438 C 717.355469 423.398438 714.714844 423.367188 712.074219 423.300781 C 709.433594 423.238281 706.796875 423.140625 704.164062 423.011719 C 701.535156 422.878906 698.910156 422.71875 696.296875 422.523438 C 693.679688 422.332031 691.074219 422.105469 688.484375 421.847656 C 685.890625 421.589844 683.3125 421.300781 680.746094 420.976562 C 678.179688 420.65625 675.632812 420.304688 673.105469 419.921875 C 670.574219 419.535156 668.0625 419.121094 665.574219 418.675781 C 663.085938 418.230469 660.621094 417.757812 658.175781 417.25 C 655.734375 416.746094 653.316406 416.207031 650.929688 415.644531 C 648.539062 415.078125 646.175781 414.484375 643.84375 413.859375 C 641.511719 413.238281 639.214844 412.585938 636.945312 411.90625 C 634.679688 411.226562 632.445312 410.519531 630.246094 409.785156 C 628.046875 409.050781 625.886719 408.289062 623.765625 407.503906 C 621.640625 406.714844 619.558594 405.902344 617.511719 405.0625 C 615.46875 404.226562 613.46875 403.363281 611.507812 402.472656 C 609.550781 401.585938 607.636719 400.675781 605.765625 399.742188 C 603.898438 398.804688 602.074219 397.847656 600.296875 396.867188 C 598.523438 395.890625 596.796875 394.890625 595.121094 393.867188 C 593.441406 392.84375 591.816406 391.804688 590.242188 390.742188 C 588.664062 389.679688 587.144531 388.597656 585.675781 387.5 C 584.207031 386.402344 582.792969 385.285156 581.433594 384.148438 C 580.074219 383.015625 578.769531 381.867188 577.523438 380.699219 C 576.277344 379.535156 575.089844 378.355469 573.960938 377.160156 C 572.828125 375.964844 571.757812 374.757812 570.746094 373.535156 C 569.734375 372.3125 568.78125 371.082031 567.890625 369.835938 C 567 368.589844 566.171875 367.335938 565.40625 366.070312 C 564.636719 364.804688 563.933594 363.53125 563.289062 362.25 C 562.648438 360.96875 562.070312 359.679688 561.554688 358.382812 C 561.039062 357.085938 560.585938 355.78125 560.199219 354.476562 C 559.808594 353.167969 559.484375 351.855469 559.226562 350.539062 C 558.96875 349.226562 558.773438 347.90625 558.644531 346.585938 C 558.511719 345.265625 558.449219 343.945312 558.449219 342.625 C 558.449219 341.300781 558.511719 339.980469 558.644531 338.660156 C 558.773438 337.339844 558.96875 336.019531 559.226562 334.707031 C 559.484375 333.390625 559.808594 332.078125 560.199219 330.769531 C 560.585938 329.464844 561.039062 328.160156 561.554688 326.863281 C 562.070312 325.566406 562.648438 324.277344 563.289062 322.996094 C 563.933594 321.714844 564.636719 320.441406 565.40625 319.175781 C 566.171875 317.910156 567 316.65625 567.890625 315.410156 C 568.78125 314.167969 569.734375 312.933594 570.746094 311.710938 C 571.757812 310.492188 572.828125 309.28125 573.960938 308.085938 C 575.089844 306.890625 576.277344 305.710938 577.523438 304.546875 C 578.769531 303.378906 580.074219 302.230469 581.433594 301.097656 C 582.792969 299.960938 584.207031 298.847656 585.675781 297.746094 C 587.144531 296.648438 588.664062 295.566406 590.242188 294.503906 C 591.816406 293.445312 593.441406 292.402344 595.121094 291.378906 C 596.796875 290.359375 598.523438 289.355469 600.296875 288.378906 C 602.074219 287.398438 603.898438 286.441406 605.765625 285.507812 C 607.636719 284.570312 609.550781 283.660156 611.507812 282.773438 C 613.46875 281.882812 615.46875 281.023438 617.511719 280.183594 C 619.558594 279.34375 621.640625 278.53125 623.765625 277.742188 C 625.886719 276.957031 628.046875 276.195312 630.246094 275.460938 C 632.445312 274.726562 634.679688 274.019531 636.945312 273.339844 C 639.214844 272.660156 641.511719 272.007812 643.84375 271.386719 C 646.175781 270.761719 648.539062 270.167969 650.929688 269.601562 C 653.316406 269.039062 655.734375 268.503906 658.175781 267.996094 C 660.621094 267.492188 663.085938 267.015625 665.574219 266.570312 C 668.0625 266.125 670.574219 265.710938 673.105469 265.324219 C 675.632812 264.941406 678.179688 264.589844 680.746094 264.269531 C 683.3125 263.945312 685.890625 263.65625 688.484375 263.398438 C 691.074219 263.140625 693.679688 262.914062 696.296875 262.722656 C 698.910156 262.527344 701.535156 262.367188 704.164062 262.238281 C 706.796875 262.105469 709.433594 262.011719 712.074219 261.945312 C 714.714844 261.878906 717.355469 261.847656 720 261.847656 C 722.644531 261.847656 725.285156 261.878906 727.925781 261.945312 C 730.566406 262.011719 733.203125 262.105469 735.835938 262.238281 C 738.464844 262.367188 741.089844 262.527344 743.703125 262.722656 C 746.320312 262.914062 748.925781 263.140625 751.515625 263.398438 C 754.109375 263.65625 756.6875 263.945312 759.253906 264.269531 C 761.820312 264.589844 764.367188 264.941406 766.894531 265.324219 C 769.425781 265.710938 771.9375 266.125 774.425781 266.570312 C 776.914062 267.015625 779.378906 267.492188 781.824219 267.996094 C 784.265625 268.503906 786.683594 269.039062 789.070312 269.601562 C 791.460938 270.167969 793.824219 270.761719 796.15625 271.386719 C 798.488281 272.007812 800.785156 272.660156 803.054688 273.339844 C 805.320312 274.019531 807.554688 274.726562 809.753906 275.460938 C 811.953125 276.195312 814.113281 276.957031 816.234375 277.742188 C 818.359375 278.53125 820.441406 279.34375 822.488281 280.183594 C 824.53125 281.023438 826.53125 281.882812 828.492188 282.773438 C 830.449219 283.660156 832.363281 284.570312 834.234375 285.507812 C 836.101562 286.441406 837.925781 287.398438 839.703125 288.378906 C 841.476562 289.355469 843.203125 290.359375 844.878906 291.378906 C 846.558594 292.402344 848.183594 293.445312 849.757812 294.503906 C 851.335938 295.566406 852.855469 296.648438 854.324219 297.746094 C 855.792969 298.847656 857.207031 299.960938 858.566406 301.097656 C 859.925781 302.230469 861.230469 303.378906 862.476562 304.546875 C 863.722656 305.710938 864.910156 306.890625 866.039062 308.085938 C 867.171875 309.28125 868.242188 310.492188 869.253906 311.710938 C 870.265625 312.933594 871.21875 314.167969 872.109375 315.410156 C 873 316.65625 873.828125 317.910156 874.59375 319.175781 C 875.363281 320.441406 876.066406 321.714844 876.710938 322.996094 C 877.351562 324.277344 877.929688 325.566406 878.445312 326.863281 C 878.960938 328.160156 879.414062 329.464844 879.800781 330.769531 C 880.191406 332.078125 880.515625 333.390625 880.773438 334.707031 C 881.03125 336.019531 881.226562 337.339844 881.355469 338.660156 C 881.488281 339.980469 881.550781 341.300781 881.550781 342.625 Z M 881.550781 342.625 " fill-opacity="1" fill-rule="nonzero"/><path fill="#f18f26" d="M 881.550781 351.597656 C 881.550781 352.921875 881.488281 354.242188 881.355469 355.5625 C 881.226562 356.882812 881.03125 358.199219 880.773438 359.515625 C 880.515625 360.832031 880.191406 362.144531 879.800781 363.449219 C 879.414062 364.757812 878.960938 366.058594 878.445312 367.355469 C 877.929688 368.652344 877.351562 369.941406 876.710938 371.226562 C 876.066406 372.507812 875.363281 373.78125 874.59375 375.046875 C 873.828125 376.3125 873 377.566406 872.109375 378.8125 C 871.21875 380.054688 870.265625 381.289062 869.253906 382.511719 C 868.242188 383.730469 867.171875 384.9375 866.039062 386.132812 C 864.910156 387.328125 863.722656 388.511719 862.476562 389.675781 C 861.230469 390.839844 859.925781 391.992188 858.566406 393.125 C 857.207031 394.257812 855.792969 395.375 854.324219 396.476562 C 852.855469 397.574219 851.335938 398.65625 849.757812 399.714844 C 848.183594 400.777344 846.558594 401.820312 844.878906 402.84375 C 843.203125 403.863281 841.476562 404.863281 839.703125 405.84375 C 837.925781 406.824219 836.101562 407.78125 834.234375 408.714844 C 832.363281 409.648438 830.449219 410.5625 828.492188 411.449219 C 826.53125 412.335938 824.53125 413.199219 822.488281 414.039062 C 820.441406 414.878906 818.359375 415.691406 816.234375 416.476562 C 814.113281 417.265625 811.953125 418.027344 809.753906 418.761719 C 807.554688 419.496094 805.320312 420.203125 803.054688 420.882812 C 800.785156 421.5625 798.488281 422.214844 796.15625 422.835938 C 793.824219 423.460938 791.460938 424.054688 789.070312 424.617188 C 786.683594 425.183594 784.265625 425.71875 781.824219 426.226562 C 779.378906 426.730469 776.914062 427.207031 774.425781 427.652344 C 771.9375 428.097656 769.425781 428.511719 766.894531 428.894531 C 764.367188 429.28125 761.820312 429.632812 759.253906 429.953125 C 756.6875 430.273438 754.109375 430.5625 751.515625 430.820312 C 748.925781 431.078125 746.320312 431.304688 743.703125 431.5 C 741.089844 431.695312 738.464844 431.855469 735.835938 431.984375 C 733.203125 432.113281 730.566406 432.210938 727.925781 432.277344 C 725.285156 432.339844 722.644531 432.375 720 432.375 C 717.355469 432.375 714.714844 432.339844 712.074219 432.277344 C 709.433594 432.210938 706.796875 432.113281 704.164062 431.984375 C 701.535156 431.855469 698.910156 431.695312 696.296875 431.5 C 693.679688 431.304688 691.074219 431.078125 688.484375 430.820312 C 685.890625 430.5625 683.3125 430.273438 680.746094 429.953125 C 678.179688 429.632812 675.632812 429.28125 673.105469 428.894531 C 670.574219 428.511719 668.0625 428.097656 665.574219 427.652344 C 663.085938 427.207031 660.621094 426.730469 658.175781 426.226562 C 655.734375 425.71875 653.316406 425.183594 650.929688 424.617188 C 648.539062 424.054688 646.175781 423.460938 643.84375 422.835938 C 641.511719 422.214844 639.214844 421.5625 636.945312 420.882812 C 634.679688 420.203125 632.445312 419.496094 630.246094 418.761719 C 628.046875 418.027344 625.886719 417.265625 623.765625 416.476562 C 621.640625 415.691406 619.558594 414.878906 617.511719 414.039062 C 615.46875 413.199219 613.46875 412.335938 611.507812 411.449219 C 609.550781 410.5625 607.636719 409.648438 605.765625 408.714844 C 603.898438 407.78125 602.074219 406.824219 600.296875 405.84375 C 598.523438 404.863281 596.796875 403.863281 595.121094 402.84375 C 593.441406 401.820312 591.816406 400.777344 590.242188 399.714844 C 588.664062 398.65625 587.144531 397.574219 585.675781 396.476562 C 584.207031 395.375 582.792969 394.257812 581.433594 393.125 C 580.074219 391.992188 578.769531 390.839844 577.523438 389.675781 C 576.277344 388.511719 575.089844 387.328125 573.960938 386.132812 C 572.828125 384.9375 571.757812 383.730469 570.746094 382.511719 C 569.734375 381.289062 568.78125 380.054688 567.890625 378.8125 C 567 377.566406 566.171875 376.3125 565.40625 375.046875 C 564.636719 373.78125 563.933594 372.507812 563.289062 371.226562 C 562.648438 369.941406 562.070312 368.652344 561.554688 367.355469 C 561.039062 366.058594 560.585938 364.757812 560.199219 363.449219 C 559.808594 362.144531 559.484375 360.832031 559.226562 359.515625 C 558.96875 358.199219 558.773438 356.882812 558.644531 355.5625 C 558.511719 354.242188 558.449219 352.921875 558.449219 351.597656 C 558.449219 350.277344 558.511719 348.957031 558.644531 347.636719 C 558.773438 346.316406 558.96875 344.996094 559.226562 343.679688 C 559.484375 342.367188 559.808594 341.054688 560.199219 339.746094 C 560.585938 338.4375 561.039062 337.136719 561.554688 335.839844 C 562.070312 334.542969 562.648438 333.253906 563.289062 331.972656 C 563.933594 330.6875 564.636719 329.414062 565.40625 328.152344 C 566.171875 326.886719 567 325.628906 567.890625 324.386719 C 568.78125 323.140625 569.734375 321.90625 570.746094 320.6875 C 571.757812 319.464844 572.828125 318.257812 573.960938 317.0625 C 575.089844 315.867188 576.277344 314.6875 577.523438 313.519531 C 578.769531 312.355469 580.074219 311.207031 581.433594 310.070312 C 582.792969 308.9375 584.207031 307.820312 585.675781 306.722656 C 587.144531 305.621094 588.664062 304.542969 590.242188 303.480469 C 591.816406 302.417969 593.441406 301.375 595.121094 300.355469 C 596.796875 299.332031 598.523438 298.332031 600.296875 297.351562 C 602.074219 296.375 603.898438 295.417969 605.765625 294.480469 C 607.636719 293.546875 609.550781 292.636719 611.507812 291.746094 C 613.46875 290.859375 615.46875 289.996094 617.511719 289.15625 C 619.558594 288.320312 621.640625 287.507812 623.765625 286.71875 C 625.886719 285.929688 628.046875 285.171875 630.246094 284.4375 C 632.445312 283.703125 634.679688 282.996094 636.945312 282.316406 C 639.214844 281.636719 641.511719 280.984375 643.84375 280.359375 C 646.175781 279.738281 648.539062 279.144531 650.929688 278.578125 C 653.316406 278.011719 655.734375 277.476562 658.175781 276.972656 C 660.621094 276.464844 663.085938 275.988281 665.574219 275.542969 C 668.0625 275.097656 670.574219 274.683594 673.105469 274.300781 C 675.632812 273.917969 678.179688 273.566406 680.746094 273.242188 C 683.3125 272.921875 685.890625 272.632812 688.484375 272.375 C 691.074219 272.117188 693.679688 271.890625 696.296875 271.695312 C 698.910156 271.503906 701.535156 271.339844 704.164062 271.210938 C 706.796875 271.082031 709.433594 270.984375 712.074219 270.921875 C 714.714844 270.855469 717.355469 270.824219 720 270.824219 C 722.644531 270.824219 725.285156 270.855469 727.925781 270.921875 C 730.566406 270.984375 733.203125 271.082031 735.835938 271.210938 C 738.464844 271.339844 741.089844 271.503906 743.703125 271.695312 C 746.320312 271.890625 748.925781 272.117188 751.515625 272.375 C 754.109375 272.632812 756.6875 272.921875 759.253906 273.242188 C 761.820312 273.566406 764.367188 273.917969 766.894531 274.300781 C 769.425781 274.683594 771.9375 275.097656 774.425781 275.542969 C 776.914062 275.988281 779.378906 276.464844 781.824219 276.972656 C 784.265625 277.476562 786.683594 278.011719 789.070312 278.578125 C 791.460938 279.144531 793.824219 279.738281 796.15625 280.359375 C 798.488281 280.984375 800.785156 281.636719 803.054688 282.316406 C 805.320312 282.996094 807.554688 283.703125 809.753906 284.4375 C 811.953125 285.171875 814.113281 285.929688 816.234375 286.71875 C 818.359375 287.507812 820.441406 288.320312 822.488281 289.15625 C 824.53125 289.996094 826.53125 290.859375 828.492188 291.746094 C 830.449219 292.636719 832.363281 293.546875 834.234375 294.480469 C 836.101562 295.417969 837.925781 296.375 839.703125 297.351562 C 841.476562 298.332031 843.203125 299.332031 844.878906 300.355469 C 846.558594 301.375 848.183594 302.417969 849.757812 303.480469 C 851.335938 304.542969 852.855469 305.621094 854.324219 306.722656 C 855.792969 307.820312 857.207031 308.9375 858.566406 310.070312 C 859.925781 311.207031 861.230469 312.355469 862.476562 313.519531 C 863.722656 314.6875 864.910156 315.867188 866.039062 317.0625 C 867.171875 318.257812 868.242188 319.464844 869.253906 320.6875 C 870.265625 321.90625 871.21875 323.140625 872.109375 324.386719 C 873 325.628906 873.828125 326.886719 874.59375 328.152344 C 875.363281 329.414062 876.066406 330.6875 876.710938 331.972656 C 877.351562 333.253906 877.929688 334.542969 878.445312 335.839844 C 878.960938 337.136719 879.414062 338.4375 879.800781 339.746094 C 880.191406 341.054688 880.515625 342.367188 880.773438 343.679688 C 881.03125 344.996094 881.226562 346.316406 881.355469 347.636719 C 881.488281 348.957031 881.550781 350.277344 881.550781 351.597656 Z M 881.550781 351.597656 " fill-opacity="1" fill-rule="nonzero"/><path fill="#f18f26" d="M 558.449219 333.648438 L 567.421875 333.648438 L 567.421875 351.597656 L 558.449219 351.597656 Z M 872.578125 333.648438 L 881.550781 333.648438 L 881.550781 351.597656 L 872.578125 351.597656 Z M 872.578125 333.648438 " fill-opacity="1" fill-rule="nonzero"/><path fill="#fcab40" d="M 881.550781 333.648438 C 881.550781 334.96875 881.488281 336.292969 881.355469 337.613281 C 881.226562 338.933594 881.03125 340.25 880.773438 341.566406 C 880.515625 342.882812 880.191406 344.191406 879.800781 345.5 C 879.414062 346.808594 878.960938 348.109375 878.445312 349.40625 C 877.929688 350.703125 877.351562 351.992188 876.710938 353.273438 C 876.066406 354.558594 875.363281 355.832031 874.59375 357.097656 C 873.828125 358.359375 873 359.617188 872.109375 360.859375 C 871.21875 362.105469 870.265625 363.339844 869.253906 364.558594 C 868.242188 365.78125 867.171875 366.988281 866.039062 368.183594 C 864.910156 369.378906 863.722656 370.558594 862.476562 371.726562 C 861.230469 372.890625 859.925781 374.042969 858.566406 375.175781 C 857.207031 376.308594 855.792969 377.425781 854.324219 378.523438 C 852.855469 379.625 851.335938 380.703125 849.757812 381.765625 C 848.183594 382.828125 846.558594 383.871094 844.878906 384.890625 C 843.203125 385.914062 841.476562 386.914062 839.703125 387.894531 C 837.925781 388.875 836.101562 389.832031 834.234375 390.765625 C 832.363281 391.699219 830.449219 392.609375 828.492188 393.5 C 826.53125 394.386719 824.53125 395.25 822.488281 396.089844 C 820.441406 396.925781 818.359375 397.742188 816.234375 398.527344 C 814.113281 399.316406 811.953125 400.078125 809.753906 400.8125 C 807.554688 401.546875 805.320312 402.253906 803.054688 402.933594 C 800.785156 403.613281 798.488281 404.261719 796.15625 404.886719 C 793.824219 405.507812 791.460938 406.101562 789.070312 406.667969 C 786.683594 407.234375 784.265625 407.769531 781.824219 408.273438 C 779.378906 408.78125 776.914062 409.257812 774.425781 409.703125 C 771.9375 410.148438 769.425781 410.5625 766.894531 410.945312 C 764.367188 411.328125 761.820312 411.683594 759.253906 412.003906 C 756.6875 412.324219 754.109375 412.613281 751.515625 412.871094 C 748.925781 413.128906 746.320312 413.355469 743.703125 413.550781 C 741.089844 413.742188 738.464844 413.90625 735.835938 414.035156 C 733.203125 414.164062 730.566406 414.261719 727.925781 414.328125 C 725.285156 414.390625 722.644531 414.421875 720 414.425781 C 717.355469 414.421875 714.714844 414.390625 712.074219 414.328125 C 709.433594 414.261719 706.796875 414.164062 704.164062 414.035156 C 701.535156 413.90625 698.910156 413.742188 696.296875 413.550781 C 693.679688 413.355469 691.074219 413.128906 688.484375 412.871094 C 685.890625 412.613281 683.3125 412.324219 680.746094 412.003906 C 678.179688 411.683594 675.632812 411.328125 673.105469 410.945312 C 670.574219 410.5625 668.0625 410.148438 665.574219 409.703125 C 663.085938 409.257812 660.621094 408.78125 658.175781 408.273438 C 655.734375 407.769531 653.316406 407.234375 650.929688 406.667969 C 648.539062 406.101562 646.175781 405.507812 643.84375 404.886719 C 641.511719 404.261719 639.214844 403.613281 636.945312 402.933594 C 634.679688 402.253906 632.445312 401.546875 630.246094 400.8125 C 628.046875 400.078125 625.886719 399.316406 623.765625 398.527344 C 621.640625 397.742188 619.558594 396.925781 617.511719 396.089844 C 615.46875 395.25 613.46875 394.386719 611.507812 393.5 C 609.550781 392.609375 607.636719 391.699219 605.765625 390.765625 C 603.898438 389.832031 602.074219 388.875 600.296875 387.894531 C 598.523438 386.914062 596.796875 385.914062 595.121094 384.890625 C 593.441406 383.871094 591.816406 382.828125 590.242188 381.765625 C 588.664062 380.703125 587.144531 379.625 585.675781 378.523438 C 584.207031 377.425781 582.792969 376.308594 581.433594 375.175781 C 580.074219 374.042969 578.769531 372.890625 577.523438 371.726562 C 576.277344 370.558594 575.089844 369.378906 573.960938 368.183594 C 572.828125 366.988281 571.757812 365.78125 570.746094 364.558594 C 569.734375 363.339844 568.78125 362.105469 567.890625 360.859375 C 567 359.617188 566.171875 358.359375 565.40625 357.097656 C 564.636719 355.832031 563.933594 354.558594 563.289062 353.273438 C 562.648438 351.992188 562.070312 350.703125 561.554688 349.40625 C 561.039062 348.109375 560.585938 346.808594 560.199219 345.5 C 559.808594 344.191406 559.484375 342.882812 559.226562 341.566406 C 558.96875 340.25 558.773438 338.933594 558.644531 337.613281 C 558.511719 336.292969 558.449219 334.96875 558.449219 333.648438 C 558.449219 332.328125 558.511719 331.003906 558.644531 329.683594 C 558.773438 328.363281 558.96875 327.046875 559.226562 325.730469 C 559.484375 324.414062 559.808594 323.105469 560.199219 321.796875 C 560.585938 320.488281 561.039062 319.1875 561.554688 317.890625 C 562.070312 316.59375 562.648438 315.304688 563.289062 314.019531 C 563.933594 312.738281 564.636719 311.464844 565.40625 310.199219 C 566.171875 308.933594 567 307.679688 567.890625 306.4375 C 568.78125 305.191406 569.734375 303.957031 570.746094 302.738281 C 571.757812 301.515625 572.828125 300.308594 573.960938 299.113281 C 575.089844 297.917969 576.277344 296.738281 577.523438 295.570312 C 578.769531 294.40625 580.074219 293.253906 581.433594 292.121094 C 582.792969 290.988281 584.207031 289.871094 585.675781 288.773438 C 587.144531 287.671875 588.664062 286.59375 590.242188 285.53125 C 591.816406 284.46875 593.441406 283.425781 595.121094 282.40625 C 596.796875 281.382812 598.523438 280.382812 600.296875 279.402344 C 602.074219 278.421875 603.898438 277.464844 605.765625 276.53125 C 607.636719 275.597656 609.550781 274.683594 611.507812 273.796875 C 613.46875 272.910156 615.46875 272.046875 617.511719 271.207031 C 619.558594 270.371094 621.640625 269.554688 623.765625 268.769531 C 625.886719 267.980469 628.046875 267.21875 630.246094 266.484375 C 632.445312 265.75 634.679688 265.042969 636.945312 264.363281 C 639.214844 263.683594 641.511719 263.035156 643.84375 262.410156 C 646.175781 261.789062 648.539062 261.191406 650.929688 260.628906 C 653.316406 260.0625 655.734375 259.527344 658.175781 259.019531 C 660.621094 258.515625 663.085938 258.039062 665.574219 257.59375 C 668.0625 257.148438 670.574219 256.734375 673.105469 256.351562 C 675.632812 255.96875 678.179688 255.613281 680.746094 255.292969 C 683.3125 254.972656 685.890625 254.683594 688.484375 254.425781 C 691.074219 254.167969 693.679688 253.941406 696.296875 253.746094 C 698.910156 253.554688 701.535156 253.390625 704.164062 253.261719 C 706.796875 253.132812 709.433594 253.035156 712.074219 252.96875 C 714.714844 252.90625 717.355469 252.871094 720 252.871094 C 722.644531 252.871094 725.285156 252.90625 727.925781 252.96875 C 730.566406 253.035156 733.203125 253.132812 735.835938 253.261719 C 738.464844 253.390625 741.089844 253.554688 743.703125 253.746094 C 746.320312 253.941406 748.925781 254.167969 751.515625 254.425781 C 754.109375 254.683594 756.6875 254.972656 759.253906 255.292969 C 761.820312 255.613281 764.367188 255.96875 766.894531 256.351562 C 769.425781 256.734375 771.9375 257.148438 774.425781 257.59375 C 776.914062 258.039062 779.378906 258.515625 781.824219 259.019531 C 784.265625 259.527344 786.683594 260.0625 789.070312 260.628906 C 791.460938 261.191406 793.824219 261.789062 796.15625 262.410156 C 798.488281 263.035156 800.785156 263.683594 803.054688 264.363281 C 805.320312 265.042969 807.554688 265.75 809.753906 266.484375 C 811.953125 267.21875 814.113281 267.980469 816.234375 268.769531 C 818.359375 269.554688 820.441406 270.371094 822.488281 271.207031 C 824.53125 272.046875 826.53125 272.910156 828.492188 273.796875 C 830.449219 274.683594 832.363281 275.597656 834.234375 276.53125 C 836.101562 277.464844 837.925781 278.421875 839.703125 279.402344 C 841.476562 280.382812 843.203125 281.382812 844.878906 282.40625 C 846.558594 283.425781 848.183594 284.46875 849.757812 285.53125 C 851.335938 286.59375 852.855469 287.671875 854.324219 288.773438 C 855.792969 289.871094 857.207031 290.988281 858.566406 292.121094 C 859.925781 293.253906 861.230469 294.40625 862.476562 295.570312 C 863.722656 296.738281 864.910156 297.917969 866.039062 299.113281 C 867.171875 300.308594 868.242188 301.515625 869.253906 302.738281 C 870.265625 303.957031 871.21875 305.191406 872.109375 306.4375 C 873 307.679688 873.828125 308.933594 874.59375 310.199219 C 875.363281 311.464844 876.066406 312.738281 876.710938 314.019531 C 877.351562 315.304688 877.929688 316.59375 878.445312 317.890625 C 878.960938 319.1875 879.414062 320.488281 879.800781 321.796875 C 880.191406 323.105469 880.515625 324.414062 880.773438 325.730469 C 881.03125 327.046875 881.226562 328.363281 881.355469 329.683594 C 881.488281 331.003906 881.550781 332.328125 881.550781 333.648438 Z M 881.550781 333.648438 " fill-opacity="1" fill-rule="nonzero"/><path fill="#f5f8fa" d="M 872.578125 333.648438 C 872.578125 334.824219 872.515625 335.996094 872.390625 337.171875 C 872.269531 338.34375 872.085938 339.515625 871.839844 340.6875 C 871.597656 341.855469 871.292969 343.019531 870.925781 344.183594 C 870.558594 345.347656 870.132812 346.503906 869.644531 347.65625 C 869.15625 348.808594 868.609375 349.953125 868.003906 351.09375 C 867.398438 352.234375 866.730469 353.367188 866.007812 354.492188 C 865.28125 355.617188 864.5 356.730469 863.65625 357.835938 C 862.816406 358.945312 861.917969 360.039062 860.960938 361.125 C 860.007812 362.210938 858.996094 363.285156 857.925781 364.347656 C 856.859375 365.410156 855.738281 366.457031 854.558594 367.496094 C 853.382812 368.53125 852.152344 369.554688 850.867188 370.5625 C 849.585938 371.570312 848.25 372.5625 846.863281 373.539062 C 845.476562 374.515625 844.039062 375.476562 842.550781 376.417969 C 841.0625 377.363281 839.527344 378.289062 837.941406 379.199219 C 836.359375 380.105469 834.726562 380.996094 833.050781 381.867188 C 831.375 382.738281 829.652344 383.589844 827.886719 384.417969 C 826.121094 385.25 824.3125 386.058594 822.464844 386.847656 C 820.613281 387.636719 818.722656 388.40625 816.792969 389.152344 C 814.863281 389.894531 812.894531 390.617188 810.890625 391.320312 C 808.882812 392.019531 806.84375 392.695312 804.765625 393.347656 C 802.691406 394 800.582031 394.628906 798.441406 395.234375 C 796.296875 395.835938 794.125 396.417969 791.925781 396.96875 C 789.722656 397.523438 787.492188 398.050781 785.234375 398.554688 C 782.976562 399.058594 780.695312 399.535156 778.386719 399.984375 C 776.082031 400.433594 773.753906 400.855469 771.402344 401.25 C 769.050781 401.648438 766.679688 402.015625 764.289062 402.355469 C 761.902344 402.699219 759.496094 403.011719 757.074219 403.296875 C 754.652344 403.582031 752.214844 403.839844 749.765625 404.070312 C 747.316406 404.296875 744.859375 404.5 742.386719 404.671875 C 739.917969 404.84375 737.441406 404.988281 734.957031 405.101562 C 732.46875 405.21875 729.980469 405.304688 727.488281 405.363281 C 724.992188 405.421875 722.496094 405.449219 720 405.449219 C 717.503906 405.449219 715.007812 405.421875 712.511719 405.363281 C 710.019531 405.304688 707.53125 405.21875 705.046875 405.101562 C 702.558594 404.988281 700.082031 404.84375 697.613281 404.671875 C 695.140625 404.5 692.683594 404.296875 690.234375 404.070312 C 687.785156 403.839844 685.347656 403.582031 682.925781 403.296875 C 680.503906 403.011719 678.097656 402.699219 675.710938 402.355469 C 673.320312 402.015625 670.949219 401.648438 668.597656 401.25 C 666.246094 400.855469 663.917969 400.433594 661.613281 399.984375 C 659.304688 399.535156 657.023438 399.058594 654.765625 398.554688 C 652.507812 398.050781 650.277344 397.523438 648.074219 396.96875 C 645.875 396.417969 643.703125 395.835938 641.558594 395.234375 C 639.417969 394.628906 637.308594 394 635.234375 393.347656 C 633.15625 392.695312 631.117188 392.019531 629.109375 391.320312 C 627.105469 390.617188 625.136719 389.894531 623.207031 389.152344 C 621.277344 388.40625 619.386719 387.636719 617.535156 386.847656 C 615.6875 386.058594 613.878906 385.25 612.113281 384.417969 C 610.347656 383.589844 608.625 382.738281 606.949219 381.867188 C 605.273438 380.996094 603.640625 380.105469 602.058594 379.199219 C 600.472656 378.289062 598.9375 377.363281 597.449219 376.417969 C 595.960938 375.476562 594.523438 374.515625 593.136719 373.539062 C 591.75 372.5625 590.414062 371.570312 589.132812 370.5625 C 587.847656 369.554688 586.617188 368.53125 585.441406 367.496094 C 584.261719 366.457031 583.140625 365.410156 582.074219 364.347656 C 581.003906 363.285156 579.992188 362.210938 579.039062 361.125 C 578.082031 360.039062 577.183594 358.945312 576.34375 357.835938 C 575.5 356.730469 574.71875 355.617188 573.992188 354.492188 C 573.269531 353.367188 572.601562 352.234375 571.996094 351.09375 C 571.390625 349.953125 570.84375 348.808594 570.355469 347.65625 C 569.867188 346.503906 569.441406 345.347656 569.074219 344.183594 C 568.707031 343.019531 568.402344 341.855469 568.160156 340.6875 C 567.914062 339.515625 567.730469 338.34375 567.609375 337.171875 C 567.484375 335.996094 567.421875 334.824219 567.421875 333.648438 C 567.421875 332.472656 567.484375 331.296875 567.609375 330.125 C 567.730469 328.953125 567.914062 327.78125 568.160156 326.609375 C 568.402344 325.441406 568.707031 324.273438 569.074219 323.113281 C 569.441406 321.949219 569.867188 320.792969 570.355469 319.640625 C 570.84375 318.488281 571.390625 317.34375 571.996094 316.203125 C 572.601562 315.0625 573.269531 313.929688 573.992188 312.804688 C 574.71875 311.679688 575.5 310.566406 576.34375 309.460938 C 577.183594 308.351562 578.082031 307.257812 579.039062 306.171875 C 579.992188 305.085938 581.003906 304.011719 582.074219 302.949219 C 583.140625 301.886719 584.261719 300.839844 585.441406 299.800781 C 586.617188 298.765625 587.847656 297.742188 589.132812 296.734375 C 590.414062 295.726562 591.75 294.734375 593.136719 293.757812 C 594.523438 292.78125 595.960938 291.820312 597.449219 290.875 C 598.9375 289.933594 600.472656 289.007812 602.058594 288.097656 C 603.640625 287.191406 605.273438 286.300781 606.949219 285.429688 C 608.625 284.558594 610.347656 283.707031 612.113281 282.878906 C 613.878906 282.046875 615.6875 281.238281 617.535156 280.449219 C 619.386719 279.660156 621.277344 278.890625 623.207031 278.144531 C 625.136719 277.398438 627.105469 276.675781 629.109375 275.976562 C 631.117188 275.277344 633.15625 274.601562 635.234375 273.949219 C 637.308594 273.296875 639.417969 272.667969 641.558594 272.0625 C 643.703125 271.457031 645.875 270.878906 648.074219 270.324219 C 650.277344 269.773438 652.507812 269.242188 654.765625 268.742188 C 657.023438 268.238281 659.304688 267.761719 661.613281 267.3125 C 663.917969 266.863281 666.246094 266.441406 668.597656 266.042969 C 670.949219 265.648438 673.320312 265.28125 675.710938 264.9375 C 678.097656 264.597656 680.503906 264.285156 682.925781 264 C 685.347656 263.714844 687.785156 263.457031 690.234375 263.226562 C 692.683594 262.996094 695.140625 262.796875 697.613281 262.625 C 700.082031 262.453125 702.558594 262.308594 705.046875 262.195312 C 707.53125 262.078125 710.019531 261.992188 712.511719 261.933594 C 715.007812 261.875 717.503906 261.847656 720 261.847656 C 722.496094 261.847656 724.992188 261.875 727.488281 261.933594 C 729.980469 261.992188 732.46875 262.078125 734.957031 262.195312 C 737.441406 262.308594 739.917969 262.453125 742.386719 262.625 C 744.859375 262.796875 747.316406 262.996094 749.765625 263.226562 C 752.214844 263.457031 754.652344 263.714844 757.074219 264 C 759.496094 264.285156 761.902344 264.597656 764.289062 264.9375 C 766.679688 265.28125 769.050781 265.648438 771.402344 266.042969 C 773.753906 266.441406 776.082031 266.863281 778.386719 267.3125 C 780.695312 267.761719 782.976562 268.238281 785.234375 268.742188 C 787.492188 269.242188 789.722656 269.773438 791.925781 270.324219 C 794.125 270.878906 796.296875 271.457031 798.441406 272.0625 C 800.582031 272.667969 802.691406 273.296875 804.765625 273.949219 C 806.84375 274.601562 808.882812 275.277344 810.890625 275.976562 C 812.894531 276.675781 814.863281 277.398438 816.792969 278.144531 C 818.722656 278.890625 820.613281 279.660156 822.464844 280.449219 C 824.3125 281.238281 826.121094 282.046875 827.886719 282.878906 C 829.652344 283.707031 831.375 284.558594 833.050781 285.429688 C 834.726562 286.300781 836.359375 287.191406 837.941406 288.097656 C 839.527344 289.007812 841.0625 289.933594 842.550781 290.875 C 844.039062 291.820312 845.476562 292.78125 846.863281 293.757812 C 848.25 294.734375 849.585938 295.726562 850.867188 296.734375 C 852.152344 297.742188 853.382812 298.765625 854.558594 299.800781 C 855.738281 300.839844 856.859375 301.886719 857.925781 302.949219 C 858.996094 304.011719 860.007812 305.085938 860.960938 306.171875 C 861.917969 307.257812 862.816406 308.351562 863.65625 309.460938 C 864.5 310.566406 865.28125 311.679688 866.007812 312.804688 C 866.730469 313.929688 867.398438 315.0625 868.003906 316.203125 C 868.609375 317.34375 869.15625 318.488281 869.644531 319.640625 C 870.132812 320.792969 870.558594 321.949219 870.925781 323.113281 C 871.292969 324.273438 871.597656 325.441406 871.839844 326.609375 C 872.085938 327.78125 872.269531 328.953125 872.390625 330.125 C 872.515625 331.296875 872.578125 332.472656 872.578125 333.648438 Z M 872.578125 333.648438 " fill-opacity="1" fill-rule="nonzero"/><path fill="#fdd888" d="M 720 270.824219 C 801.042969 270.824219 867.144531 300.585938 872.089844 338.136719 C 872.289062 336.644531 872.578125 335.164062 872.578125 333.648438 C 872.578125 293.996094 804.265625 261.847656 720 261.847656 C 635.734375 261.847656 567.421875 293.996094 567.421875 333.648438 C 567.421875 335.164062 567.710938 336.644531 567.910156 338.136719 C 572.855469 300.585938 638.957031 270.824219 720 270.824219 Z M 720 270.824219 " fill-opacity="1" fill-rule="nonzero"/><path fill="#aa695b" d="M 815.144531 267.222656 C 819.09375 264.261719 819.902344 258.609375 816.941406 254.660156 L 811.554688 247.480469 C 808.59375 243.53125 802.9375 242.722656 798.988281 245.683594 L 685.507812 335.828125 C 678.5625 334.332031 669.488281 336.574219 661.519531 342.550781 C 649.617188 351.472656 644.796875 365.132812 650.75 373.066406 C 656.699219 381 671.167969 380.191406 683.058594 371.273438 C 690.554688 365.652344 695.21875 358.160156 696.179688 351.390625 Z M 867.808594 293.421875 L 863.242188 285.695312 C 860.730469 281.441406 855.199219 280.023438 850.945312 282.535156 L 726.074219 361.074219 C 719.625 359.808594 711.484375 361.28125 703.890625 365.777344 C 691.089844 373.34375 684.800781 386.394531 689.84375 394.929688 C 694.886719 403.464844 709.355469 404.253906 722.152344 396.6875 C 731.175781 391.359375 736.855469 383.316406 737.726562 376.039062 L 864.652344 305.71875 C 868.90625 303.195312 870.324219 297.667969 867.808594 293.421875 Z M 867.808594 293.421875 " fill-opacity="1" fill-rule="nonzero"/><path fill="#da2f47" d="M 576.398438 495.199219 C 571.460938 495.199219 567.421875 491.160156 567.421875 486.222656 L 567.421875 405.449219 C 567.421875 400.511719 571.460938 396.472656 576.398438 396.472656 C 581.335938 396.472656 585.375 400.511719 585.375 405.449219 L 585.375 486.222656 C 585.375 491.160156 581.335938 495.199219 576.398438 495.199219 Z M 657.175781 531.101562 C 652.238281 531.101562 648.199219 527.0625 648.199219 522.125 L 648.199219 441.347656 C 648.199219 436.414062 652.238281 432.375 657.175781 432.375 C 662.109375 432.375 666.148438 436.414062 666.148438 441.347656 L 666.148438 522.125 C 666.148438 527.0625 662.109375 531.101562 657.175781 531.101562 Z M 764.875 531.101562 C 759.9375 531.101562 755.898438 527.0625 755.898438 522.125 L 755.898438 441.347656 C 755.898438 436.414062 759.9375 432.375 764.875 432.375 C 769.8125 432.375 773.851562 436.414062 773.851562 441.347656 L 773.851562 522.125 C 773.851562 527.0625 769.8125 531.101562 764.875 531.101562 Z M 863.601562 495.199219 C 858.664062 495.199219 854.625 491.160156 854.625 486.222656 L 854.625 405.449219 C 854.625 400.511719 858.664062 396.472656 863.601562 396.472656 C 868.539062 396.472656 872.578125 400.511719 872.578125 405.449219 L 872.578125 486.222656 C 872.578125 491.160156 868.539062 495.199219 863.601562 495.199219 Z M 863.601562 495.199219 " fill-opacity="1" fill-rule="nonzero"/></svg>